<svg width="32" height="32" viewBox="0 0 32 32" fill="none" xmlns="http://www.w3.org/2000/svg">
<path fill-rule="evenodd" clip-rule="evenodd" d="M22.8266 15.6262C22.1893 15.6262 21.6719 15.1075 21.6719 14.4715C21.6719 13.8342 22.1893 13.3168 22.8266 13.3168C23.4639 13.3168 23.9812 13.8342 23.9812 14.4715C23.9812 15.1075 23.4639 15.6262 22.8266 15.6262ZM20.5479 19.4662C19.9106 19.4662 19.3932 18.9475 19.3932 18.3102C19.3932 17.6742 19.9106 17.1555 20.5479 17.1555C21.1852 17.1555 21.7026 17.6742 21.7026 18.3102C21.7026 18.9475 21.1852 19.4662 20.5479 19.4662ZM19.7639 24.2115H12.2373C11.6853 24.2115 11.2373 23.7635 11.2373 23.2115C11.2373 22.6595 11.6853 22.2115 12.2373 22.2115H19.7639C20.3159 22.2115 20.7639 22.6595 20.7639 23.2115C20.7639 23.7635 20.3159 24.2115 19.7639 24.2115ZM10.284 18.3102C10.284 17.6742 10.8013 17.1555 11.4386 17.1555C12.076 17.1555 12.5933 17.6742 12.5933 18.3102C12.5933 18.9475 12.076 19.4662 11.4386 19.4662C10.8013 19.4662 10.284 18.9475 10.284 18.3102ZM9.15997 15.6262C8.52264 15.6262 8.0053 15.1075 8.0053 14.4715C8.0053 13.8342 8.52264 13.3168 9.15997 13.3168C9.7973 13.3168 10.3146 13.8342 10.3146 14.4715C10.3146 15.1075 9.7973 15.6262 9.15997 15.6262ZM13.7173 13.3168C14.3546 13.3168 14.8719 13.8342 14.8719 14.4715C14.8719 15.1075 14.3546 15.6262 13.7173 15.6262C13.08 15.6262 12.5626 15.1075 12.5626 14.4715C12.5626 13.8342 13.08 13.3168 13.7173 13.3168ZM15.9932 17.1555C16.6306 17.1555 17.1479 17.6742 17.1479 18.3102C17.1479 18.9475 16.6306 19.4662 15.9932 19.4662C15.3559 19.4662 14.8386 18.9475 14.8386 18.3102C14.8386 17.6742 15.3559 17.1555 15.9932 17.1555ZM18.2692 13.3168C18.9066 13.3168 19.4239 13.8342 19.4239 14.4715C19.4239 15.1075 18.9066 15.6262 18.2692 15.6262C17.6319 15.6262 17.1146 15.1075 17.1146 14.4715C17.1146 13.8342 17.6319 13.3168 18.2692 13.3168ZM21.6386 8.54617H17.1919V8.36083C17.1639 6.40483 15.5573 4.8235 13.6133 4.8235H12.2693C11.904 4.8235 11.604 4.52883 11.6013 4.1635C11.596 3.6115 11.132 3.1595 10.592 3.17283C10.04 3.17817 9.59597 3.63017 9.6013 4.18217C9.61597 5.64483 10.8093 6.8235 12.2586 6.8235H13.5933C14.4026 6.80217 15.1799 7.5195 15.1919 8.3755V8.54617H10.3613C5.9613 8.54617 3.3333 11.1248 3.3333 15.4435V21.9408C3.32664 24.0248 3.95197 25.7582 5.1413 26.9515C6.3653 28.1795 8.1653 28.8275 10.3493 28.8275H21.6386C26.0386 28.8275 28.6666 26.2542 28.6666 21.9435V15.5448C28.6666 11.1622 26.0386 8.54617 21.6386 8.54617Z" fill="url(#paint0_linear_297_2005)"/>
<defs>
<linearGradient id="paint0_linear_297_2005" x1="5.49996" y1="7.00002" x2="32.5" y2="38.5" gradientUnits="userSpaceOnUse">
<stop stop-color="#4CA6FF"/>
<stop offset="1" stop-color="#F4DC73"/>
</linearGradient>
</defs>
</svg>
