<svg width="225" height="40" viewBox="0 0 225 40" fill="none" xmlns="http://www.w3.org/2000/svg">
<path d="M223.013 18.624C221.685 18.624 220.613 18.464 219.797 18.144C218.981 17.808 218.381 17.256 217.997 16.488C217.629 15.704 217.445 14.648 217.445 13.32V1.75201H221.021V13.464C221.021 14.088 221.181 14.568 221.501 14.904C221.837 15.224 222.309 15.384 222.917 15.384H224.861V18.624H223.013ZM215.453 8.11201V5.30401H224.861V8.11201H215.453Z" fill="white"/>
<path d="M208.693 18.864C206.821 18.864 205.357 18.48 204.301 17.712C203.245 16.944 202.685 15.864 202.621 14.472H206.029C206.093 14.888 206.341 15.264 206.773 15.6C207.221 15.92 207.885 16.08 208.765 16.08C209.437 16.08 209.989 15.968 210.421 15.744C210.869 15.504 211.093 15.168 211.093 14.736C211.093 14.352 210.925 14.048 210.589 13.824C210.253 13.584 209.653 13.416 208.789 13.32L207.757 13.224C206.173 13.064 204.981 12.624 204.181 11.904C203.397 11.184 203.005 10.264 203.005 9.14398C203.005 8.21598 203.237 7.43998 203.701 6.81598C204.165 6.19198 204.805 5.71998 205.621 5.39998C206.453 5.07998 207.397 4.91998 208.453 4.91998C210.149 4.91998 211.517 5.29598 212.557 6.04798C213.597 6.78398 214.141 7.85598 214.189 9.26398H210.781C210.717 8.83198 210.493 8.47198 210.109 8.18398C209.725 7.87998 209.157 7.72798 208.405 7.72798C207.813 7.72798 207.341 7.83998 206.989 8.06398C206.637 8.28798 206.461 8.59198 206.461 8.97598C206.461 9.34398 206.613 9.62398 206.917 9.81598C207.221 10.008 207.717 10.144 208.405 10.224L209.437 10.32C211.053 10.496 212.309 10.944 213.205 11.664C214.101 12.384 214.549 13.352 214.549 14.568C214.549 15.448 214.309 16.216 213.829 16.872C213.349 17.512 212.669 18.008 211.789 18.36C210.909 18.696 209.877 18.864 208.693 18.864Z" fill="white"/>
<path d="M194.748 18.912C193.628 18.912 192.636 18.72 191.772 18.336C190.924 17.952 190.212 17.44 189.636 16.8C189.076 16.144 188.644 15.416 188.34 14.616C188.052 13.8 187.908 12.968 187.908 12.12V11.64C187.908 10.76 188.052 9.92002 188.34 9.12002C188.644 8.30402 189.076 7.57602 189.636 6.93602C190.196 6.29602 190.892 5.79202 191.724 5.42402C192.572 5.04002 193.532 4.84802 194.604 4.84802C196.012 4.84802 197.196 5.16802 198.156 5.80802C199.132 6.43202 199.876 7.25602 200.388 8.28002C200.9 9.28802 201.156 10.392 201.156 11.592V12.888H189.516V10.704H198.828L197.58 11.712C197.58 10.928 197.468 10.256 197.244 9.69602C197.02 9.13602 196.684 8.71202 196.236 8.42402C195.804 8.12002 195.26 7.96802 194.604 7.96802C193.932 7.96802 193.364 8.12002 192.9 8.42402C192.436 8.72802 192.084 9.17602 191.844 9.76802C191.604 10.344 191.484 11.056 191.484 11.904C191.484 12.688 191.596 13.376 191.82 13.968C192.044 14.544 192.396 14.992 192.876 15.312C193.356 15.632 193.98 15.792 194.748 15.792C195.452 15.792 196.028 15.656 196.476 15.384C196.924 15.112 197.228 14.776 197.388 14.376H200.916C200.724 15.256 200.348 16.04 199.788 16.728C199.228 17.416 198.524 17.952 197.676 18.336C196.828 18.72 195.852 18.912 194.748 18.912Z" fill="white"/>
<path d="M179.248 18.456V3.88797H183.184V18.456H179.248ZM174.328 4.36797V0.935974H188.128V4.36797H174.328Z" fill="white"/>
<path d="M159.062 18.888C158.134 18.888 157.286 18.72 156.518 18.384C155.766 18.048 155.11 17.584 154.55 16.992C153.99 16.384 153.558 15.672 153.254 14.856C152.966 14.04 152.822 13.16 152.822 12.216V11.664C152.822 10.72 152.958 9.83997 153.23 9.02397C153.518 8.20797 153.926 7.49597 154.454 6.88797C154.998 6.26397 155.646 5.78397 156.398 5.44797C157.15 5.09597 157.99 4.91997 158.918 4.91997C159.974 4.91997 160.886 5.15197 161.654 5.61597C162.422 6.06397 163.022 6.73597 163.454 7.63197C163.886 8.51197 164.126 9.59997 164.174 10.896L163.166 9.95997V0.935974H167.03V18.456H163.982V13.008H164.51C164.462 14.256 164.198 15.32 163.718 16.2C163.254 17.08 162.622 17.752 161.822 18.216C161.022 18.664 160.102 18.888 159.062 18.888ZM160.022 15.672C160.614 15.672 161.15 15.544 161.63 15.288C162.126 15.016 162.518 14.624 162.806 14.112C163.11 13.6 163.262 12.984 163.262 12.264V11.376C163.262 10.672 163.11 10.08 162.806 9.59997C162.502 9.11997 162.102 8.75197 161.606 8.49597C161.11 8.23997 160.574 8.11197 159.998 8.11197C159.358 8.11197 158.782 8.27997 158.27 8.61597C157.774 8.93597 157.382 9.38397 157.094 9.95997C156.806 10.52 156.662 11.176 156.662 11.928C156.662 12.696 156.806 13.36 157.094 13.92C157.382 14.48 157.782 14.912 158.294 15.216C158.806 15.52 159.382 15.672 160.022 15.672Z" fill="white"/>
<path d="M144.686 18.912C143.566 18.912 142.574 18.72 141.71 18.336C140.862 17.952 140.15 17.44 139.574 16.8C139.014 16.144 138.582 15.416 138.278 14.616C137.99 13.8 137.846 12.968 137.846 12.12V11.64C137.846 10.76 137.99 9.92002 138.278 9.12002C138.582 8.30402 139.014 7.57602 139.574 6.93602C140.134 6.29602 140.83 5.79202 141.662 5.42402C142.51 5.04002 143.47 4.84802 144.542 4.84802C145.95 4.84802 147.134 5.16802 148.094 5.80802C149.07 6.43202 149.814 7.25602 150.326 8.28002C150.838 9.28802 151.094 10.392 151.094 11.592V12.888H139.454V10.704H148.766L147.518 11.712C147.518 10.928 147.406 10.256 147.182 9.69602C146.958 9.13602 146.622 8.71202 146.174 8.42402C145.742 8.12002 145.198 7.96802 144.542 7.96802C143.87 7.96802 143.302 8.12002 142.838 8.42402C142.374 8.72802 142.022 9.17602 141.782 9.76802C141.542 10.344 141.422 11.056 141.422 11.904C141.422 12.688 141.534 13.376 141.758 13.968C141.982 14.544 142.334 14.992 142.814 15.312C143.294 15.632 143.918 15.792 144.686 15.792C145.39 15.792 145.966 15.656 146.414 15.384C146.862 15.112 147.166 14.776 147.326 14.376H150.854C150.662 15.256 150.286 16.04 149.726 16.728C149.166 17.416 148.462 17.952 147.614 18.336C146.766 18.72 145.79 18.912 144.686 18.912Z" fill="white"/>
<path d="M129.709 18.912C128.589 18.912 127.597 18.72 126.733 18.336C125.885 17.952 125.173 17.44 124.597 16.8C124.037 16.144 123.605 15.416 123.301 14.616C123.013 13.8 122.869 12.968 122.869 12.12V11.64C122.869 10.76 123.013 9.92002 123.301 9.12002C123.605 8.30402 124.037 7.57602 124.597 6.93602C125.157 6.29602 125.853 5.79202 126.685 5.42402C127.533 5.04002 128.493 4.84802 129.565 4.84802C130.973 4.84802 132.157 5.16802 133.117 5.80802C134.093 6.43202 134.837 7.25602 135.349 8.28002C135.861 9.28802 136.117 10.392 136.117 11.592V12.888H124.477V10.704H133.789L132.541 11.712C132.541 10.928 132.429 10.256 132.205 9.69602C131.981 9.13602 131.645 8.71202 131.197 8.42402C130.765 8.12002 130.221 7.96802 129.565 7.96802C128.893 7.96802 128.325 8.12002 127.861 8.42402C127.397 8.72802 127.045 9.17602 126.805 9.76802C126.565 10.344 126.445 11.056 126.445 11.904C126.445 12.688 126.557 13.376 126.781 13.968C127.005 14.544 127.357 14.992 127.837 15.312C128.317 15.632 128.941 15.792 129.709 15.792C130.413 15.792 130.989 15.656 131.437 15.384C131.885 15.112 132.189 14.776 132.349 14.376H135.877C135.685 15.256 135.309 16.04 134.749 16.728C134.189 17.416 133.485 17.952 132.637 18.336C131.789 18.72 130.813 18.912 129.709 18.912Z" fill="white"/>
<path d="M106.81 23.256V5.30398H109.858V10.992L109.45 10.968C109.514 9.65598 109.786 8.55198 110.266 7.65598C110.746 6.74398 111.394 6.06398 112.21 5.61598C113.026 5.15198 113.946 4.91998 114.97 4.91998C115.882 4.91998 116.706 5.08798 117.442 5.42398C118.194 5.75998 118.834 6.23198 119.362 6.83998C119.906 7.43198 120.314 8.13598 120.586 8.95198C120.874 9.75198 121.018 10.632 121.018 11.592V12.144C121.018 13.088 120.882 13.976 120.61 14.808C120.338 15.624 119.938 16.336 119.41 16.944C118.898 17.552 118.266 18.032 117.514 18.384C116.778 18.72 115.93 18.888 114.97 18.888C113.978 18.888 113.082 18.688 112.282 18.288C111.498 17.872 110.866 17.248 110.386 16.416C109.906 15.568 109.642 14.496 109.594 13.2L110.65 14.64V23.256H106.81ZM113.89 15.672C114.546 15.672 115.114 15.512 115.594 15.192C116.09 14.872 116.474 14.424 116.746 13.848C117.018 13.272 117.154 12.608 117.154 11.856C117.154 11.104 117.018 10.448 116.746 9.88798C116.474 9.32798 116.098 8.89598 115.618 8.59198C115.138 8.27198 114.562 8.11198 113.89 8.11198C113.314 8.11198 112.77 8.24798 112.258 8.51998C111.746 8.79198 111.33 9.18398 111.01 9.69598C110.706 10.192 110.554 10.8 110.554 11.52V12.408C110.554 13.096 110.714 13.688 111.034 14.184C111.37 14.664 111.794 15.032 112.306 15.288C112.818 15.544 113.346 15.672 113.89 15.672Z" fill="white"/>
<path d="M97.1142 18.912C95.5302 18.912 94.1942 18.664 93.1062 18.168C92.0182 17.656 91.1942 16.968 90.6342 16.104C90.0742 15.224 89.7942 14.216 89.7942 13.08H93.6102C93.6102 13.528 93.7302 13.944 93.9702 14.328C94.2262 14.712 94.6102 15.024 95.1222 15.264C95.6342 15.488 96.2982 15.6 97.1142 15.6C97.8502 15.6 98.4662 15.504 98.9622 15.312C99.4582 15.12 99.8342 14.856 100.09 14.52C100.346 14.168 100.474 13.768 100.474 13.32C100.474 12.76 100.234 12.32 99.7542 12C99.2742 11.664 98.4982 11.448 97.4262 11.352L96.1062 11.232C94.3622 11.088 92.9702 10.544 91.9302 9.60002C90.8902 8.65602 90.3702 7.40802 90.3702 5.85602C90.3702 4.73602 90.6342 3.76802 91.1622 2.95202C91.7062 2.13602 92.4582 1.51202 93.4182 1.08002C94.3782 0.63202 95.5142 0.40802 96.8262 0.40802C98.2022 0.40802 99.3782 0.64802 100.354 1.12802C101.346 1.59202 102.106 2.25602 102.634 3.12002C103.162 3.96802 103.426 4.96802 103.426 6.12002H99.5862C99.5862 5.68802 99.4822 5.29602 99.2742 4.94402C99.0662 4.57602 98.7542 4.28002 98.3382 4.05602C97.9382 3.83202 97.4342 3.72002 96.8262 3.72002C96.2502 3.72002 95.7622 3.81602 95.3622 4.00802C94.9782 4.20002 94.6902 4.46402 94.4982 4.80002C94.3062 5.12002 94.2102 5.47202 94.2102 5.85602C94.2102 6.35202 94.3862 6.78402 94.7382 7.15202C95.0902 7.52002 95.6662 7.73602 96.4662 7.80002L97.8102 7.92002C99.0902 8.03202 100.218 8.31202 101.194 8.76002C102.17 9.19202 102.93 9.79202 103.474 10.56C104.034 11.312 104.314 12.232 104.314 13.32C104.314 14.44 104.018 15.424 103.426 16.272C102.85 17.104 102.026 17.752 100.954 18.216C99.8822 18.68 98.6022 18.912 97.1142 18.912Z" fill="white"/>
<path d="M74.4941 23.688C73.8541 23.688 73.1981 23.664 72.5261 23.616C71.8541 23.568 71.2381 23.504 70.6781 23.424V20.184C71.2381 20.264 71.8541 20.328 72.5261 20.376C73.2141 20.44 73.8381 20.472 74.3981 20.472C75.4381 20.472 76.2781 20.352 76.9181 20.112C77.5741 19.872 78.0541 19.504 78.3581 19.008C78.6621 18.528 78.8141 17.904 78.8141 17.136V14.52L79.5101 12.984C79.4781 14.152 79.2461 15.152 78.8141 15.984C78.3981 16.816 77.8141 17.456 77.0621 17.904C76.3101 18.336 75.4141 18.552 74.3741 18.552C73.4781 18.552 72.6621 18.392 71.9261 18.072C71.2061 17.736 70.5901 17.272 70.0781 16.68C69.5661 16.088 69.1741 15.4 68.9021 14.616C68.6301 13.816 68.4941 12.952 68.4941 12.024V11.472C68.4941 10.544 68.6381 9.67998 68.9261 8.87998C69.2141 8.07998 69.6301 7.38398 70.1741 6.79198C70.7181 6.19998 71.3661 5.74398 72.1181 5.42398C72.8701 5.08798 73.7021 4.91998 74.6141 4.91998C75.6701 4.91998 76.5821 5.15198 77.3501 5.61598C78.1341 6.07998 78.7501 6.75998 79.1981 7.65598C79.6461 8.55198 79.8861 9.63198 79.9181 10.896L79.3901 11.04V5.30398H82.4381V16.896C82.4381 18.512 82.1501 19.816 81.5741 20.808C80.9981 21.8 80.1181 22.528 78.9341 22.992C77.7661 23.456 76.2861 23.688 74.4941 23.688ZM75.5741 15.312C76.1661 15.312 76.7021 15.184 77.1821 14.928C77.6621 14.656 78.0381 14.272 78.3101 13.776C78.5981 13.28 78.7421 12.68 78.7421 11.976V11.28C78.7421 10.592 78.5901 10.016 78.2861 9.55198C77.9981 9.07198 77.6141 8.71198 77.1341 8.47198C76.6541 8.21598 76.1421 8.08798 75.5981 8.08798C74.9581 8.08798 74.3901 8.23998 73.8941 8.54398C73.3981 8.84798 73.0141 9.27198 72.7421 9.81598C72.4701 10.36 72.3341 11 72.3341 11.736C72.3341 12.488 72.4701 13.136 72.7421 13.68C73.0301 14.208 73.4141 14.616 73.8941 14.904C74.3901 15.176 74.9501 15.312 75.5741 15.312Z" fill="white"/>
<path d="M53.6538 18.456V5.304H56.7018V10.944H56.4858C56.4858 9.6 56.6538 8.48 56.9898 7.584C57.3418 6.688 57.8698 6.016 58.5738 5.568C59.2778 5.12 60.1338 4.896 61.1418 4.896H61.3098C62.8458 4.896 64.0138 5.4 64.8138 6.408C65.6298 7.4 66.0378 8.91199 66.0378 10.944V18.456H62.1978V10.728C62.1978 10.024 61.9898 9.448 61.5738 9C61.1578 8.552 60.5978 8.328 59.8938 8.328C59.1738 8.328 58.5898 8.56 58.1418 9.024C57.7098 9.472 57.4938 10.064 57.4938 10.8V18.456H53.6538Z" fill="white"/>
<path d="M46.2623 18.456V5.304H50.1023V18.456H46.2623ZM44.5103 8.136V5.304H50.1023V8.136H44.5103ZM47.7503 4.008C47.0303 4.008 46.4943 3.824 46.1423 3.456C45.8063 3.072 45.6383 2.592 45.6383 2.016C45.6383 1.424 45.8063 0.944 46.1423 0.576C46.4943 0.192 47.0303 0 47.7503 0C48.4703 0 48.9983 0.192 49.3343 0.576C49.6863 0.944 49.8623 1.424 49.8623 2.016C49.8623 2.592 49.6863 3.072 49.3343 3.456C48.9983 3.824 48.4703 4.008 47.7503 4.008Z" fill="white"/>
<path d="M28.7632 23.256V5.30398H31.8112V10.992L31.4032 10.968C31.4672 9.65598 31.7392 8.55198 32.2192 7.65598C32.6992 6.74398 33.3472 6.06398 34.1632 5.61598C34.9792 5.15198 35.8992 4.91998 36.9232 4.91998C37.8352 4.91998 38.6592 5.08798 39.3952 5.42398C40.1472 5.75998 40.7872 6.23198 41.3152 6.83998C41.8592 7.43198 42.2672 8.13598 42.5392 8.95198C42.8272 9.75198 42.9712 10.632 42.9712 11.592V12.144C42.9712 13.088 42.8352 13.976 42.5632 14.808C42.2912 15.624 41.8912 16.336 41.3632 16.944C40.8512 17.552 40.2192 18.032 39.4672 18.384C38.7312 18.72 37.8832 18.888 36.9232 18.888C35.9312 18.888 35.0352 18.688 34.2352 18.288C33.4512 17.872 32.8192 17.248 32.3392 16.416C31.8592 15.568 31.5952 14.496 31.5472 13.2L32.6032 14.64V23.256H28.7632ZM35.8432 15.672C36.4992 15.672 37.0672 15.512 37.5472 15.192C38.0432 14.872 38.4272 14.424 38.6992 13.848C38.9712 13.272 39.1072 12.608 39.1072 11.856C39.1072 11.104 38.9712 10.448 38.6992 9.88798C38.4272 9.32798 38.0512 8.89598 37.5712 8.59198C37.0912 8.27198 36.5152 8.11198 35.8432 8.11198C35.2672 8.11198 34.7232 8.24798 34.2112 8.51998C33.6992 8.79198 33.2832 9.18398 32.9632 9.69598C32.6592 10.192 32.5072 10.8 32.5072 11.52V12.408C32.5072 13.096 32.6672 13.688 32.9872 14.184C33.3232 14.664 33.7472 15.032 34.2592 15.288C34.7712 15.544 35.2992 15.672 35.8432 15.672Z" fill="white"/>
<path d="M14.9318 23.664V20.4H17.6678C18.0838 20.4 18.4358 20.344 18.7238 20.232C19.0118 20.136 19.2438 19.968 19.4198 19.728C19.5958 19.488 19.7398 19.16 19.8518 18.744L23.0918 5.30402H26.7398L23.0678 19.512C22.8118 20.536 22.4518 21.352 21.9878 21.96C21.5398 22.568 20.9318 23 20.1638 23.256C19.4118 23.528 18.4518 23.664 17.2838 23.664H14.9318ZM19.0598 18.168V15.168H21.8438V18.168H19.0598ZM17.4758 18.168L13.4438 5.30402H17.3078L21.1238 18.168H17.4758Z" fill="white"/>
<path d="M4.92024 18.456V3.88797H8.85625V18.456H4.92024ZM0.000244141 4.36797V0.935974H13.8002V4.36797H0.000244141Z" fill="white"/>
<path d="M220.392 36.88C219.552 36.88 218.9 36.7 218.436 36.34C217.98 35.98 217.744 35.488 217.728 34.864H218.808C218.824 35.112 218.948 35.348 219.18 35.572C219.42 35.788 219.824 35.896 220.392 35.896C220.904 35.896 221.296 35.796 221.568 35.596C221.84 35.388 221.976 35.136 221.976 34.84C221.976 34.576 221.876 34.372 221.676 34.228C221.476 34.076 221.152 33.976 220.704 33.928L220.008 33.856C219.4 33.792 218.904 33.612 218.52 33.316C218.136 33.012 217.944 32.588 217.944 32.044C217.944 31.636 218.048 31.288 218.256 31C218.464 30.704 218.752 30.48 219.12 30.328C219.488 30.168 219.912 30.088 220.392 30.088C221.112 30.088 221.696 30.248 222.144 30.568C222.592 30.888 222.824 31.364 222.84 31.996H221.76C221.752 31.74 221.632 31.524 221.4 31.348C221.176 31.164 220.84 31.072 220.392 31.072C219.944 31.072 219.604 31.164 219.372 31.348C219.14 31.532 219.024 31.764 219.024 32.044C219.024 32.284 219.104 32.476 219.264 32.62C219.432 32.764 219.704 32.856 220.08 32.896L220.776 32.968C221.464 33.04 222.016 33.232 222.432 33.544C222.848 33.848 223.056 34.28 223.056 34.84C223.056 35.24 222.94 35.596 222.708 35.908C222.484 36.212 222.172 36.452 221.772 36.628C221.372 36.796 220.912 36.88 220.392 36.88Z" fill="#949497"/>
<path d="M212.695 36.904C212.239 36.904 211.819 36.82 211.435 36.652C211.051 36.484 210.715 36.248 210.427 35.944C210.147 35.64 209.927 35.288 209.767 34.888C209.615 34.488 209.539 34.056 209.539 33.592V33.376C209.539 32.92 209.615 32.492 209.767 32.092C209.919 31.692 210.131 31.34 210.403 31.036C210.683 30.732 211.011 30.496 211.387 30.328C211.771 30.152 212.195 30.064 212.659 30.064C213.147 30.064 213.591 30.168 213.991 30.376C214.391 30.576 214.719 30.892 214.975 31.324C215.231 31.756 215.375 32.316 215.407 33.004L214.927 32.236V27.928H216.079V36.688H215.167V33.844H215.503C215.471 34.572 215.319 35.164 215.047 35.62C214.775 36.068 214.431 36.396 214.015 36.604C213.607 36.804 213.167 36.904 212.695 36.904ZM212.851 35.896C213.243 35.896 213.599 35.808 213.919 35.632C214.239 35.456 214.495 35.204 214.687 34.876C214.879 34.54 214.975 34.148 214.975 33.7V33.148C214.975 32.708 214.875 32.336 214.675 32.032C214.483 31.72 214.223 31.484 213.895 31.324C213.575 31.156 213.223 31.072 212.839 31.072C212.415 31.072 212.039 31.172 211.711 31.372C211.391 31.572 211.139 31.852 210.955 32.212C210.779 32.572 210.691 32.996 210.691 33.484C210.691 33.972 210.783 34.4 210.967 34.768C211.151 35.128 211.407 35.408 211.735 35.608C212.063 35.8 212.435 35.896 212.851 35.896Z" fill="#949497"/>
<path d="M202.343 36.688V30.28H203.255V33.028H203.111C203.111 32.396 203.195 31.864 203.363 31.432C203.539 30.992 203.803 30.66 204.155 30.436C204.507 30.204 204.951 30.088 205.487 30.088H205.535C206.343 30.088 206.939 30.34 207.323 30.844C207.715 31.348 207.911 32.076 207.911 33.028V36.688H206.759V32.788C206.759 32.292 206.619 31.896 206.339 31.6C206.059 31.296 205.675 31.144 205.187 31.144C204.683 31.144 204.275 31.3 203.963 31.612C203.651 31.924 203.495 32.34 203.495 32.86V36.688H202.343Z" fill="#949497"/>
<path d="M197.185 36.904C196.625 36.904 196.133 36.808 195.709 36.616C195.285 36.424 194.925 36.172 194.629 35.86C194.341 35.54 194.121 35.184 193.969 34.792C193.825 34.4 193.753 34 193.753 33.592V33.376C193.753 32.968 193.829 32.568 193.981 32.176C194.133 31.776 194.357 31.42 194.653 31.108C194.949 30.788 195.309 30.536 195.733 30.352C196.157 30.16 196.641 30.064 197.185 30.064C197.729 30.064 198.213 30.16 198.637 30.352C199.061 30.536 199.421 30.788 199.717 31.108C200.013 31.42 200.237 31.776 200.389 32.176C200.541 32.568 200.617 32.968 200.617 33.376V33.592C200.617 34 200.541 34.4 200.389 34.792C200.245 35.184 200.025 35.54 199.729 35.86C199.441 36.172 199.085 36.424 198.661 36.616C198.237 36.808 197.745 36.904 197.185 36.904ZM197.185 35.872C197.665 35.872 198.073 35.768 198.409 35.56C198.753 35.344 199.013 35.056 199.189 34.696C199.373 34.336 199.465 33.932 199.465 33.484C199.465 33.028 199.373 32.62 199.189 32.26C199.005 31.9 198.741 31.616 198.397 31.408C198.061 31.2 197.657 31.096 197.185 31.096C196.721 31.096 196.317 31.2 195.973 31.408C195.629 31.616 195.365 31.9 195.181 32.26C194.997 32.62 194.905 33.028 194.905 33.484C194.905 33.932 194.993 34.336 195.169 34.696C195.353 35.056 195.613 35.344 195.949 35.56C196.293 35.768 196.705 35.872 197.185 35.872Z" fill="#949497"/>
<path d="M189.704 36.904C189.152 36.904 188.672 36.808 188.264 36.616C187.864 36.424 187.532 36.168 187.268 35.848C187.004 35.52 186.804 35.16 186.668 34.768C186.54 34.376 186.476 33.984 186.476 33.592V33.376C186.476 32.968 186.54 32.568 186.668 32.176C186.804 31.784 187.004 31.432 187.268 31.12C187.54 30.8 187.876 30.544 188.276 30.352C188.676 30.16 189.144 30.064 189.68 30.064C190.216 30.064 190.696 30.164 191.12 30.364C191.552 30.564 191.896 30.848 192.152 31.216C192.416 31.576 192.564 32.004 192.596 32.5H191.492C191.436 32.1 191.252 31.768 190.94 31.504C190.628 31.232 190.208 31.096 189.68 31.096C189.224 31.096 188.844 31.2 188.54 31.408C188.236 31.616 188.008 31.9 187.856 32.26C187.704 32.62 187.628 33.028 187.628 33.484C187.628 33.924 187.704 34.328 187.856 34.696C188.008 35.056 188.236 35.344 188.54 35.56C188.852 35.768 189.24 35.872 189.704 35.872C190.064 35.872 190.376 35.808 190.64 35.68C190.904 35.552 191.116 35.38 191.276 35.164C191.436 34.948 191.532 34.704 191.564 34.432H192.668C192.644 34.936 192.496 35.372 192.224 35.74C191.96 36.108 191.608 36.396 191.168 36.604C190.736 36.804 190.248 36.904 189.704 36.904Z" fill="#949497"/>
<path d="M182.332 36.904C181.772 36.904 181.288 36.808 180.88 36.616C180.472 36.424 180.14 36.172 179.884 35.86C179.628 35.54 179.436 35.184 179.308 34.792C179.188 34.4 179.128 34 179.128 33.592V33.376C179.128 32.96 179.188 32.556 179.308 32.164C179.436 31.772 179.628 31.42 179.884 31.108C180.14 30.788 180.464 30.536 180.856 30.352C181.256 30.16 181.724 30.064 182.26 30.064C182.956 30.064 183.528 30.216 183.976 30.52C184.432 30.816 184.768 31.2 184.984 31.672C185.208 32.144 185.32 32.648 185.32 33.184V33.7H179.632V32.836H184.48L184.216 33.304C184.216 32.848 184.144 32.456 184 32.128C183.856 31.792 183.64 31.532 183.352 31.348C183.064 31.164 182.7 31.072 182.26 31.072C181.804 31.072 181.424 31.176 181.12 31.384C180.824 31.592 180.6 31.876 180.448 32.236C180.304 32.596 180.232 33.012 180.232 33.484C180.232 33.94 180.304 34.352 180.448 34.72C180.6 35.08 180.832 35.368 181.144 35.584C181.456 35.792 181.852 35.896 182.332 35.896C182.836 35.896 183.244 35.784 183.556 35.56C183.876 35.336 184.068 35.076 184.132 34.78H185.212C185.124 35.22 184.948 35.6 184.684 35.92C184.42 36.24 184.088 36.484 183.688 36.652C183.288 36.82 182.836 36.904 182.332 36.904Z" fill="#949497"/>
<path d="M175.275 36.88C174.435 36.88 173.783 36.7 173.319 36.34C172.863 35.98 172.627 35.488 172.611 34.864H173.691C173.707 35.112 173.831 35.348 174.063 35.572C174.303 35.788 174.707 35.896 175.275 35.896C175.787 35.896 176.179 35.796 176.451 35.596C176.723 35.388 176.859 35.136 176.859 34.84C176.859 34.576 176.759 34.372 176.559 34.228C176.359 34.076 176.035 33.976 175.587 33.928L174.891 33.856C174.283 33.792 173.787 33.612 173.403 33.316C173.019 33.012 172.827 32.588 172.827 32.044C172.827 31.636 172.931 31.288 173.139 31C173.347 30.704 173.635 30.48 174.003 30.328C174.371 30.168 174.795 30.088 175.275 30.088C175.995 30.088 176.579 30.248 177.027 30.568C177.475 30.888 177.707 31.364 177.723 31.996H176.643C176.635 31.74 176.515 31.524 176.283 31.348C176.059 31.164 175.723 31.072 175.275 31.072C174.827 31.072 174.487 31.164 174.255 31.348C174.023 31.532 173.907 31.764 173.907 32.044C173.907 32.284 173.987 32.476 174.147 32.62C174.315 32.764 174.587 32.856 174.963 32.896L175.659 32.968C176.347 33.04 176.899 33.232 177.315 33.544C177.731 33.848 177.939 34.28 177.939 34.84C177.939 35.24 177.823 35.596 177.591 35.908C177.367 36.212 177.055 36.452 176.655 36.628C176.255 36.796 175.795 36.88 175.275 36.88Z" fill="#949497"/>
<path d="M164.886 36.904C164.23 36.904 163.67 36.792 163.206 36.568C162.75 36.336 162.378 36.024 162.09 35.632C161.81 35.24 161.606 34.788 161.478 34.276C161.35 33.756 161.286 33.208 161.286 32.632V31.984C161.286 31.176 161.41 30.448 161.658 29.8C161.914 29.152 162.306 28.64 162.834 28.264C163.37 27.88 164.054 27.688 164.886 27.688C165.718 27.688 166.398 27.88 166.926 28.264C167.454 28.64 167.842 29.152 168.09 29.8C168.346 30.448 168.474 31.176 168.474 31.984V32.632C168.474 33.208 168.41 33.756 168.282 34.276C168.154 34.788 167.946 35.24 167.658 35.632C167.378 36.024 167.01 36.336 166.554 36.568C166.098 36.792 165.542 36.904 164.886 36.904ZM164.886 35.848C165.718 35.848 166.326 35.568 166.71 35.008C167.102 34.44 167.298 33.544 167.298 32.32C167.298 31.04 167.098 30.124 166.698 29.572C166.306 29.02 165.702 28.744 164.886 28.744C164.062 28.744 163.45 29.02 163.05 29.572C162.658 30.124 162.462 31.032 162.462 32.296C162.462 33.528 162.658 34.428 163.05 34.996C163.442 35.564 164.054 35.848 164.886 35.848Z" fill="#949497"/>
<path d="M156.7 36.928C156.06 36.928 155.524 36.816 155.092 36.592C154.668 36.368 154.328 36.064 154.072 35.68C153.824 35.288 153.644 34.84 153.532 34.336C153.428 33.832 153.376 33.304 153.376 32.752V32.176C153.376 30.792 153.72 29.728 154.408 28.984C155.096 28.232 156.092 27.856 157.396 27.856C157.708 27.856 157.972 27.864 158.188 27.88C158.404 27.896 158.64 27.92 158.896 27.952V28.936C158.632 28.904 158.388 28.88 158.164 28.864C157.94 28.848 157.668 28.84 157.348 28.84C156.62 28.84 156.044 28.976 155.62 29.248C155.196 29.52 154.892 29.912 154.708 30.424C154.524 30.928 154.432 31.54 154.432 32.26V32.8L154.144 33.868C154.152 33.236 154.272 32.712 154.504 32.296C154.744 31.88 155.068 31.568 155.476 31.36C155.892 31.152 156.368 31.048 156.904 31.048C157.528 31.048 158.056 31.176 158.488 31.432C158.92 31.68 159.244 32.024 159.46 32.464C159.684 32.904 159.796 33.404 159.796 33.964C159.796 34.532 159.68 35.04 159.448 35.488C159.216 35.936 158.868 36.288 158.404 36.544C157.948 36.8 157.38 36.928 156.7 36.928ZM156.7 35.92C157.14 35.92 157.508 35.836 157.804 35.668C158.1 35.5 158.32 35.272 158.464 34.984C158.616 34.688 158.692 34.348 158.692 33.964C158.692 33.58 158.62 33.24 158.476 32.944C158.332 32.648 158.116 32.42 157.828 32.26C157.548 32.092 157.2 32.008 156.784 32.008C156.376 32.008 156.008 32.084 155.68 32.236C155.36 32.388 155.108 32.612 154.924 32.908C154.74 33.196 154.648 33.552 154.648 33.976C154.648 34.328 154.72 34.652 154.864 34.948C155.008 35.244 155.232 35.48 155.536 35.656C155.84 35.832 156.228 35.92 156.7 35.92Z" fill="#949497"/>
<path d="M143.21 36.688V30.28H144.122V33.028H143.978C143.978 32.396 144.062 31.864 144.23 31.432C144.406 30.992 144.67 30.66 145.022 30.436C145.374 30.204 145.818 30.088 146.354 30.088H146.402C147.21 30.088 147.806 30.34 148.19 30.844C148.582 31.348 148.778 32.076 148.778 33.028V36.688H147.626V32.788C147.626 32.292 147.486 31.896 147.206 31.6C146.926 31.296 146.542 31.144 146.054 31.144C145.55 31.144 145.142 31.3 144.83 31.612C144.518 31.924 144.362 32.34 144.362 32.86V36.688H143.21Z" fill="#949497"/>
<path d="M139.831 36.688V30.28H140.983V36.688H139.831ZM138.847 31.192V30.28H140.983V31.192H138.847ZM140.155 29.248C139.899 29.248 139.707 29.18 139.579 29.044C139.459 28.908 139.399 28.736 139.399 28.528C139.399 28.32 139.459 28.148 139.579 28.012C139.707 27.876 139.899 27.808 140.155 27.808C140.411 27.808 140.599 27.876 140.719 28.012C140.847 28.148 140.911 28.32 140.911 28.528C140.911 28.736 140.847 28.908 140.719 29.044C140.599 29.18 140.411 29.248 140.155 29.248Z" fill="#949497"/>
<path d="M129.112 36.688V30.28H130.024V33.028H129.88C129.88 32.396 129.964 31.864 130.132 31.432C130.308 30.992 130.572 30.66 130.924 30.436C131.276 30.204 131.72 30.088 132.256 30.088H132.304C133.112 30.088 133.708 30.34 134.092 30.844C134.484 31.348 134.68 32.076 134.68 33.028V36.688H133.528V32.788C133.528 32.292 133.388 31.896 133.108 31.6C132.828 31.296 132.444 31.144 131.956 31.144C131.452 31.144 131.044 31.3 130.732 31.612C130.42 31.924 130.264 32.34 130.264 32.86V36.688H129.112Z" fill="#949497"/>
<path d="M126.086 36.688V34.768H125.894V32.548C125.894 32.108 125.778 31.776 125.546 31.552C125.322 31.328 124.99 31.216 124.55 31.216C124.302 31.216 124.046 31.22 123.782 31.228C123.518 31.236 123.266 31.244 123.026 31.252C122.786 31.26 122.578 31.272 122.402 31.288V30.28C122.578 30.264 122.762 30.252 122.954 30.244C123.154 30.228 123.358 30.22 123.566 30.22C123.774 30.212 123.974 30.208 124.166 30.208C124.822 30.208 125.358 30.288 125.774 30.448C126.19 30.6 126.498 30.852 126.698 31.204C126.898 31.556 126.998 32.032 126.998 32.632V36.688H126.086ZM123.986 36.856C123.506 36.856 123.09 36.776 122.738 36.616C122.394 36.448 122.126 36.208 121.934 35.896C121.75 35.584 121.658 35.208 121.658 34.768C121.658 34.312 121.758 33.932 121.958 33.628C122.166 33.324 122.466 33.096 122.858 32.944C123.25 32.784 123.722 32.704 124.274 32.704H126.014V33.568H124.226C123.762 33.568 123.406 33.68 123.158 33.904C122.91 34.128 122.786 34.416 122.786 34.768C122.786 35.12 122.91 35.404 123.158 35.62C123.406 35.836 123.762 35.944 124.226 35.944C124.498 35.944 124.758 35.896 125.006 35.8C125.254 35.696 125.458 35.528 125.618 35.296C125.786 35.056 125.878 34.728 125.894 34.312L126.206 34.768C126.166 35.224 126.054 35.608 125.87 35.92C125.694 36.224 125.446 36.456 125.126 36.616C124.814 36.776 124.434 36.856 123.986 36.856Z" fill="#949497"/>
<path d="M117.681 36.904C117.129 36.904 116.649 36.808 116.241 36.616C115.841 36.424 115.509 36.168 115.245 35.848C114.981 35.52 114.781 35.16 114.645 34.768C114.517 34.376 114.453 33.984 114.453 33.592V33.376C114.453 32.968 114.517 32.568 114.645 32.176C114.781 31.784 114.981 31.432 115.245 31.12C115.517 30.8 115.853 30.544 116.253 30.352C116.653 30.16 117.121 30.064 117.657 30.064C118.193 30.064 118.673 30.164 119.097 30.364C119.529 30.564 119.873 30.848 120.129 31.216C120.393 31.576 120.541 32.004 120.573 32.5H119.469C119.413 32.1 119.229 31.768 118.917 31.504C118.605 31.232 118.185 31.096 117.657 31.096C117.201 31.096 116.821 31.2 116.517 31.408C116.213 31.616 115.985 31.9 115.833 32.26C115.681 32.62 115.605 33.028 115.605 33.484C115.605 33.924 115.681 34.328 115.833 34.696C115.985 35.056 116.213 35.344 116.517 35.56C116.829 35.768 117.217 35.872 117.681 35.872C118.041 35.872 118.353 35.808 118.617 35.68C118.881 35.552 119.093 35.38 119.253 35.164C119.413 34.948 119.509 34.704 119.541 34.432H120.645C120.621 34.936 120.473 35.372 120.201 35.74C119.937 36.108 119.585 36.396 119.145 36.604C118.713 36.804 118.225 36.904 117.681 36.904Z" fill="#949497"/>
<path d="M106.887 36.88C106.127 36.88 105.543 36.632 105.135 36.136C104.727 35.64 104.523 34.924 104.523 33.988V30.268H105.675V34.216C105.675 34.72 105.811 35.116 106.083 35.404C106.355 35.684 106.723 35.824 107.187 35.824C107.667 35.824 108.059 35.672 108.363 35.368C108.667 35.056 108.819 34.632 108.819 34.096V30.268H109.971V36.688H109.059V33.94H109.203C109.203 34.572 109.119 35.108 108.951 35.548C108.783 35.98 108.531 36.312 108.195 36.544C107.867 36.768 107.447 36.88 106.935 36.88H106.887Z" fill="#949497"/>
<path d="M99.5096 36.904C98.9496 36.904 98.4576 36.808 98.0336 36.616C97.6096 36.424 97.2496 36.172 96.9536 35.86C96.6656 35.54 96.4456 35.184 96.2936 34.792C96.1496 34.4 96.0776 34 96.0776 33.592V33.376C96.0776 32.968 96.1536 32.568 96.3056 32.176C96.4576 31.776 96.6816 31.42 96.9776 31.108C97.2736 30.788 97.6336 30.536 98.0576 30.352C98.4816 30.16 98.9656 30.064 99.5096 30.064C100.054 30.064 100.538 30.16 100.962 30.352C101.386 30.536 101.746 30.788 102.042 31.108C102.338 31.42 102.562 31.776 102.714 32.176C102.866 32.568 102.942 32.968 102.942 33.376V33.592C102.942 34 102.866 34.4 102.714 34.792C102.57 35.184 102.35 35.54 102.054 35.86C101.766 36.172 101.41 36.424 100.986 36.616C100.562 36.808 100.07 36.904 99.5096 36.904ZM99.5096 35.872C99.9896 35.872 100.398 35.768 100.734 35.56C101.078 35.344 101.338 35.056 101.514 34.696C101.698 34.336 101.79 33.932 101.79 33.484C101.79 33.028 101.698 32.62 101.514 32.26C101.33 31.9 101.066 31.616 100.722 31.408C100.386 31.2 99.9816 31.096 99.5096 31.096C99.0456 31.096 98.6416 31.2 98.2976 31.408C97.9536 31.616 97.6896 31.9 97.5056 32.26C97.3216 32.62 97.2296 33.028 97.2296 33.484C97.2296 33.932 97.3176 34.336 97.4936 34.696C97.6776 35.056 97.9376 35.344 98.2736 35.56C98.6176 35.768 99.0296 35.872 99.5096 35.872Z" fill="#949497"/>
<path d="M89.6804 39.184V38.152H90.6044C90.8764 38.152 91.1044 38.116 91.2884 38.044C91.4804 37.98 91.6364 37.868 91.7564 37.708C91.8844 37.548 91.9884 37.336 92.0684 37.072L94.0844 30.28H95.2124L93.0764 37.372C92.9484 37.796 92.7684 38.14 92.5364 38.404C92.3044 38.676 92.0204 38.872 91.6844 38.992C91.3564 39.12 90.9724 39.184 90.5324 39.184H89.6804ZM91.6364 36.544V35.584H93.0284V36.544H91.6364ZM91.5164 36.544L89.2244 30.28H90.4004L92.5964 36.544H91.5164Z" fill="#949497"/>
<path d="M83.0483 36.88C82.2083 36.88 81.5563 36.7 81.0923 36.34C80.6363 35.98 80.4003 35.488 80.3843 34.864H81.4643C81.4803 35.112 81.6043 35.348 81.8363 35.572C82.0763 35.788 82.4803 35.896 83.0483 35.896C83.5603 35.896 83.9523 35.796 84.2243 35.596C84.4963 35.388 84.6323 35.136 84.6323 34.84C84.6323 34.576 84.5323 34.372 84.3323 34.228C84.1323 34.076 83.8083 33.976 83.3603 33.928L82.6643 33.856C82.0563 33.792 81.5603 33.612 81.1763 33.316C80.7923 33.012 80.6003 32.588 80.6003 32.044C80.6003 31.636 80.7043 31.288 80.9123 31C81.1203 30.704 81.4083 30.48 81.7763 30.328C82.1443 30.168 82.5683 30.088 83.0483 30.088C83.7683 30.088 84.3523 30.248 84.8003 30.568C85.2483 30.888 85.4803 31.364 85.4963 31.996H84.4163C84.4083 31.74 84.2883 31.524 84.0563 31.348C83.8323 31.164 83.4963 31.072 83.0483 31.072C82.6003 31.072 82.2603 31.164 82.0283 31.348C81.7963 31.532 81.6803 31.764 81.6803 32.044C81.6803 32.284 81.7603 32.476 81.9203 32.62C82.0883 32.764 82.3603 32.856 82.7363 32.896L83.4323 32.968C84.1203 33.04 84.6723 33.232 85.0883 33.544C85.5043 33.848 85.7123 34.28 85.7123 34.84C85.7123 35.24 85.5963 35.596 85.3643 35.908C85.1403 36.212 84.8283 36.452 84.4283 36.628C84.0283 36.796 83.5683 36.88 83.0483 36.88Z" fill="#949497"/>
<path d="M77.9219 36.688V34.768H77.7299V32.548C77.7299 32.108 77.6139 31.776 77.3819 31.552C77.1579 31.328 76.8259 31.216 76.3859 31.216C76.1379 31.216 75.8819 31.22 75.6179 31.228C75.3539 31.236 75.1019 31.244 74.8619 31.252C74.6219 31.26 74.4139 31.272 74.2379 31.288V30.28C74.4139 30.264 74.5979 30.252 74.7899 30.244C74.9899 30.228 75.1939 30.22 75.4019 30.22C75.6099 30.212 75.8099 30.208 76.0019 30.208C76.6579 30.208 77.1939 30.288 77.6099 30.448C78.0259 30.6 78.3339 30.852 78.5339 31.204C78.7339 31.556 78.8339 32.032 78.8339 32.632V36.688H77.9219ZM75.8219 36.856C75.3419 36.856 74.9259 36.776 74.5739 36.616C74.2299 36.448 73.9619 36.208 73.7699 35.896C73.5859 35.584 73.4939 35.208 73.4939 34.768C73.4939 34.312 73.5939 33.932 73.7939 33.628C74.0019 33.324 74.3019 33.096 74.6939 32.944C75.0859 32.784 75.5579 32.704 76.1099 32.704H77.8499V33.568H76.0619C75.5979 33.568 75.2419 33.68 74.9939 33.904C74.7459 34.128 74.6219 34.416 74.6219 34.768C74.6219 35.12 74.7459 35.404 74.9939 35.62C75.2419 35.836 75.5979 35.944 76.0619 35.944C76.3339 35.944 76.5939 35.896 76.8419 35.8C77.0899 35.696 77.2939 35.528 77.4539 35.296C77.6219 35.056 77.7139 34.728 77.7299 34.312L78.0419 34.768C78.0019 35.224 77.8899 35.608 77.7059 35.92C77.5299 36.224 77.2819 36.456 76.9619 36.616C76.6499 36.776 76.2699 36.856 75.8219 36.856Z" fill="#949497"/>
<path d="M68.702 36.76C68.222 36.76 67.806 36.692 67.454 36.556C67.11 36.42 66.842 36.188 66.65 35.86C66.466 35.524 66.374 35.072 66.374 34.504V28.336H67.478V34.648C67.478 34.992 67.57 35.26 67.754 35.452C67.946 35.636 68.214 35.728 68.558 35.728H69.686V36.76H68.702ZM65.27 31.144V30.28H69.686V31.144H65.27Z" fill="#949497"/>
<path d="M61.8725 36.88C61.0325 36.88 60.3805 36.7 59.9165 36.34C59.4605 35.98 59.2245 35.488 59.2085 34.864H60.2885C60.3045 35.112 60.4285 35.348 60.6605 35.572C60.9005 35.788 61.3045 35.896 61.8725 35.896C62.3845 35.896 62.7765 35.796 63.0485 35.596C63.3205 35.388 63.4565 35.136 63.4565 34.84C63.4565 34.576 63.3565 34.372 63.1565 34.228C62.9565 34.076 62.6325 33.976 62.1845 33.928L61.4885 33.856C60.8805 33.792 60.3845 33.612 60.0005 33.316C59.6165 33.012 59.4245 32.588 59.4245 32.044C59.4245 31.636 59.5285 31.288 59.7365 31C59.9445 30.704 60.2325 30.48 60.6005 30.328C60.9685 30.168 61.3925 30.088 61.8725 30.088C62.5925 30.088 63.1765 30.248 63.6245 30.568C64.0725 30.888 64.3045 31.364 64.3205 31.996H63.2405C63.2325 31.74 63.1125 31.524 62.8805 31.348C62.6565 31.164 62.3205 31.072 61.8725 31.072C61.4245 31.072 61.0845 31.164 60.8525 31.348C60.6205 31.532 60.5045 31.764 60.5045 32.044C60.5045 32.284 60.5845 32.476 60.7445 32.62C60.9125 32.764 61.1845 32.856 61.5605 32.896L62.2565 32.968C62.9445 33.04 63.4965 33.232 63.9125 33.544C64.3285 33.848 64.5365 34.28 64.5365 34.84C64.5365 35.24 64.4205 35.596 64.1885 35.908C63.9645 36.212 63.6525 36.452 63.2525 36.628C62.8525 36.796 62.3925 36.88 61.8725 36.88Z" fill="#949497"/>
<path d="M56.7461 36.688V34.768H56.5541V32.548C56.5541 32.108 56.4381 31.776 56.2061 31.552C55.9821 31.328 55.6501 31.216 55.2101 31.216C54.9621 31.216 54.7061 31.22 54.4421 31.228C54.1781 31.236 53.9261 31.244 53.6861 31.252C53.4461 31.26 53.2381 31.272 53.0621 31.288V30.28C53.2381 30.264 53.4221 30.252 53.6141 30.244C53.8141 30.228 54.0181 30.22 54.2261 30.22C54.4341 30.212 54.6341 30.208 54.8261 30.208C55.4821 30.208 56.0181 30.288 56.4341 30.448C56.8501 30.6 57.1581 30.852 57.3581 31.204C57.5581 31.556 57.6581 32.032 57.6581 32.632V36.688H56.7461ZM54.6461 36.856C54.1661 36.856 53.7501 36.776 53.3981 36.616C53.0541 36.448 52.7861 36.208 52.5941 35.896C52.4101 35.584 52.3181 35.208 52.3181 34.768C52.3181 34.312 52.4181 33.932 52.6181 33.628C52.8261 33.324 53.1261 33.096 53.5181 32.944C53.9101 32.784 54.3821 32.704 54.9341 32.704H56.6741V33.568H54.8861C54.4221 33.568 54.0661 33.68 53.8181 33.904C53.5701 34.128 53.4461 34.416 53.4461 34.768C53.4461 35.12 53.5701 35.404 53.8181 35.62C54.0661 35.836 54.4221 35.944 54.8861 35.944C55.1581 35.944 55.4181 35.896 55.6661 35.8C55.9141 35.696 56.1181 35.528 56.2781 35.296C56.4461 35.056 56.5381 34.728 56.5541 34.312L56.8661 34.768C56.8261 35.224 56.7141 35.608 56.5301 35.92C56.3541 36.224 56.1061 36.456 55.7861 36.616C55.4741 36.776 55.0941 36.856 54.6461 36.856Z" fill="#949497"/>
<path d="M48.5147 36.688V29.956C48.5147 29.244 48.7027 28.72 49.0787 28.384C49.4547 28.048 50.0067 27.88 50.7347 27.88H51.5267V28.84H50.5427C50.2467 28.84 50.0187 28.924 49.8587 29.092C49.6987 29.252 49.6187 29.476 49.6187 29.764V36.688H48.5147ZM47.6267 31.216V30.352H51.6467V31.216H47.6267Z" fill="#949497"/>
<path d="M41.2826 36.88C40.4426 36.88 39.7907 36.7 39.3267 36.34C38.8707 35.98 38.6347 35.488 38.6187 34.864H39.6987C39.7147 35.112 39.8387 35.348 40.0707 35.572C40.3107 35.788 40.7146 35.896 41.2826 35.896C41.7947 35.896 42.1867 35.796 42.4587 35.596C42.7307 35.388 42.8667 35.136 42.8667 34.84C42.8667 34.576 42.7667 34.372 42.5667 34.228C42.3667 34.076 42.0427 33.976 41.5947 33.928L40.8987 33.856C40.2907 33.792 39.7947 33.612 39.4107 33.316C39.0267 33.012 38.8347 32.588 38.8347 32.044C38.8347 31.636 38.9387 31.288 39.1467 31C39.3547 30.704 39.6427 30.48 40.0107 30.328C40.3787 30.168 40.8026 30.088 41.2826 30.088C42.0027 30.088 42.5867 30.248 43.0347 30.568C43.4827 30.888 43.7147 31.364 43.7307 31.996H42.6507C42.6427 31.74 42.5227 31.524 42.2907 31.348C42.0667 31.164 41.7306 31.072 41.2826 31.072C40.8347 31.072 40.4947 31.164 40.2627 31.348C40.0307 31.532 39.9146 31.764 39.9146 32.044C39.9146 32.284 39.9947 32.476 40.1547 32.62C40.3227 32.764 40.5946 32.856 40.9706 32.896L41.6667 32.968C42.3547 33.04 42.9067 33.232 43.3227 33.544C43.7387 33.848 43.9467 34.28 43.9467 34.84C43.9467 35.24 43.8307 35.596 43.5987 35.908C43.3747 36.212 43.0627 36.452 42.6627 36.628C42.2627 36.796 41.8026 36.88 41.2826 36.88Z" fill="#949497"/>
<path d="M36.1563 36.688V34.768H35.9643V32.548C35.9643 32.108 35.8483 31.776 35.6163 31.552C35.3923 31.328 35.0603 31.216 34.6203 31.216C34.3723 31.216 34.1163 31.22 33.8523 31.228C33.5883 31.236 33.3363 31.244 33.0963 31.252C32.8563 31.26 32.6483 31.272 32.4723 31.288V30.28C32.6483 30.264 32.8323 30.252 33.0243 30.244C33.2243 30.228 33.4283 30.22 33.6363 30.22C33.8443 30.212 34.0443 30.208 34.2363 30.208C34.8923 30.208 35.4283 30.288 35.8443 30.448C36.2603 30.6 36.5683 30.852 36.7683 31.204C36.9683 31.556 37.0683 32.032 37.0683 32.632V36.688H36.1563ZM34.0563 36.856C33.5763 36.856 33.1603 36.776 32.8083 36.616C32.4643 36.448 32.1963 36.208 32.0043 35.896C31.8203 35.584 31.7283 35.208 31.7283 34.768C31.7283 34.312 31.8283 33.932 32.0283 33.628C32.2363 33.324 32.5363 33.096 32.9283 32.944C33.3203 32.784 33.7923 32.704 34.3443 32.704H36.0843V33.568H34.2963C33.8323 33.568 33.4763 33.68 33.2283 33.904C32.9803 34.128 32.8563 34.416 32.8563 34.768C32.8563 35.12 32.9803 35.404 33.2283 35.62C33.4763 35.836 33.8323 35.944 34.2963 35.944C34.5683 35.944 34.8283 35.896 35.0763 35.8C35.3243 35.696 35.5283 35.528 35.6883 35.296C35.8563 35.056 35.9483 34.728 35.9643 34.312L36.2763 34.768C36.2363 35.224 36.1243 35.608 35.9403 35.92C35.7643 36.224 35.5163 36.456 35.1963 36.616C34.8843 36.776 34.5043 36.856 34.0563 36.856Z" fill="#949497"/>
<path d="M24.9262 36.904C24.3662 36.904 23.8822 36.808 23.4742 36.616C23.0662 36.424 22.7342 36.172 22.4782 35.86C22.2222 35.54 22.0302 35.184 21.9022 34.792C21.7822 34.4 21.7222 34 21.7222 33.592V33.376C21.7222 32.96 21.7822 32.556 21.9022 32.164C22.0302 31.772 22.2222 31.42 22.4782 31.108C22.7342 30.788 23.0582 30.536 23.4502 30.352C23.8502 30.16 24.3182 30.064 24.8542 30.064C25.5502 30.064 26.1222 30.216 26.5702 30.52C27.0262 30.816 27.3622 31.2 27.5782 31.672C27.8022 32.144 27.9142 32.648 27.9142 33.184V33.7H22.2262V32.836H27.0742L26.8102 33.304C26.8102 32.848 26.7382 32.456 26.5942 32.128C26.4502 31.792 26.2342 31.532 25.9462 31.348C25.6582 31.164 25.2942 31.072 24.8542 31.072C24.3982 31.072 24.0182 31.176 23.7142 31.384C23.4182 31.592 23.1942 31.876 23.0422 32.236C22.8982 32.596 22.8262 33.012 22.8262 33.484C22.8262 33.94 22.8982 34.352 23.0422 34.72C23.1942 35.08 23.4262 35.368 23.7382 35.584C24.0502 35.792 24.4462 35.896 24.9262 35.896C25.4302 35.896 25.8382 35.784 26.1502 35.56C26.4702 35.336 26.6622 35.076 26.7262 34.78H27.8062C27.7182 35.22 27.5422 35.6 27.2782 35.92C27.0142 36.24 26.6822 36.484 26.2822 36.652C25.8822 36.82 25.4302 36.904 24.9262 36.904Z" fill="#949497"/>
<path d="M13.9287 39.088V30.28H14.8407V33.052L14.6247 33.028C14.6647 32.34 14.8087 31.78 15.0567 31.348C15.3127 30.908 15.6447 30.584 16.0527 30.376C16.4607 30.168 16.9047 30.064 17.3847 30.064C17.8487 30.064 18.2687 30.152 18.6447 30.328C19.0287 30.504 19.3567 30.744 19.6287 31.048C19.9007 31.352 20.1087 31.704 20.2527 32.104C20.3967 32.504 20.4687 32.928 20.4687 33.376V33.592C20.4687 34.04 20.3927 34.464 20.2407 34.864C20.0887 35.264 19.8727 35.616 19.5927 35.92C19.3207 36.224 18.9927 36.464 18.6087 36.64C18.2327 36.816 17.8167 36.904 17.3607 36.904C16.9047 36.904 16.4687 36.804 16.0527 36.604C15.6367 36.404 15.2927 36.08 15.0207 35.632C14.7487 35.184 14.5927 34.596 14.5527 33.868L15.0807 34.828V39.088H13.9287ZM17.1807 35.896C17.6127 35.896 17.9887 35.796 18.3087 35.596C18.6287 35.388 18.8767 35.104 19.0527 34.744C19.2287 34.376 19.3167 33.956 19.3167 33.484C19.3167 33.004 19.2287 32.584 19.0527 32.224C18.8767 31.864 18.6287 31.584 18.3087 31.384C17.9887 31.176 17.6127 31.072 17.1807 31.072C16.7967 31.072 16.4407 31.16 16.1127 31.336C15.7847 31.504 15.5207 31.752 15.3207 32.08C15.1287 32.4 15.0327 32.788 15.0327 33.244V33.796C15.0327 34.236 15.1327 34.612 15.3327 34.924C15.5327 35.236 15.7967 35.476 16.1247 35.644C16.4527 35.812 16.8047 35.896 17.1807 35.896Z" fill="#949497"/>
<path d="M6.93427 39.184V38.152H7.85827C8.13027 38.152 8.35827 38.116 8.54227 38.044C8.73427 37.98 8.89027 37.868 9.01027 37.708C9.13827 37.548 9.24227 37.336 9.32227 37.072L11.3383 30.28H12.4663L10.3303 37.372C10.2023 37.796 10.0223 38.14 9.79027 38.404C9.55827 38.676 9.27427 38.872 8.93827 38.992C8.61027 39.12 8.22627 39.184 7.78627 39.184H6.93427ZM8.89027 36.544V35.584H10.2823V36.544H8.89027ZM8.77027 36.544L6.47827 30.28H7.65427L9.85027 36.544H8.77027Z" fill="#949497"/>
<path d="M2.664 36.688V28.744H3.84V36.688H2.664ZM0 28.984V27.928H6.504V28.984H0Z" fill="#949497"/>
</svg>
